<?xml version="1.0" standalone="no"?>
<!DOCTYPE svg PUBLIC "-//W3C//DTD SVG 20010904//EN"
 "http://www.w3.org/TR/2001/REC-SVG-20010904/DTD/svg10.dtd">
<svg version="1.0" xmlns="http://www.w3.org/2000/svg"
 width="800.000000pt" height="800.000000pt" viewBox="0 0 800.000000 800.000000"
 preserveAspectRatio="xMidYMid meet">
<metadata>
Created by potrace 1.14, written by Peter Selinger 2001-2017
</metadata>
<g transform="translate(0.000000,800.000000) scale(0.100000,-0.100000)"
fill="#000000" stroke="none">
<path d="M3110 7775 c-396 -89 -641 -274 -728 -548 -17 -50 -44 -171 -61 -267
-42 -230 -64 -308 -112 -400 -50 -97 -117 -180 -201 -250 -36 -30 -60 -56 -53
-58 26 -6 174 60 241 107 121 85 215 202 270 340 13 33 38 139 54 238 36 210
48 252 99 330 140 212 468 402 768 444 51 7 89 17 86 22 -28 45 -239 70 -363
42z"/>
<path d="M3695 7470 c-389 -47 -645 -218 -834 -558 -55 -99 -134 -282 -126
-290 3 -3 6 -3 8 -1 2 2 24 32 50 65 106 140 305 296 490 384 209 100 358 134
572 133 256 -2 516 -56 785 -163 183 -72 275 -132 540 -350 240 -197 554 -386
847 -509 l123 -52 67 12 c115 19 264 58 343 91 66 27 216 116 208 123 -2 2
-59 8 -128 15 -315 30 -645 145 -1015 354 -116 66 -334 209 -575 377 -173 121
-321 190 -564 264 -298 90 -594 129 -791 105z"/>
<path d="M3770 6585 c-215 -24 -451 -68 -449 -83 0 -4 62 -56 137 -116 l137
-109 125 17 c483 66 906 25 1400 -136 264 -86 497 -188 705 -310 210 -124 325
-202 725 -497 295 -218 498 -361 512 -361 41 0 -256 372 -454 567 -574 567
-1284 911 -2103 1019 -162 21 -581 27 -735 9z"/>
<path d="M2384 6102 c-129 -123 -287 -216 -474 -279 l-85 -28 95 -6 c131 -7
422 7 525 26 95 18 199 52 466 154 103 39 194 71 202 71 9 0 19 5 23 12 5 8 2
9 -11 4 -39 -14 -164 -18 -250 -7 -95 13 -267 57 -357 91 -29 11 -57 20 -63
20 -5 -1 -37 -27 -71 -58z"/>
<path d="M3545 5704 c-160 -13 -415 -85 -481 -135 -7 -6 8 -27 42 -63 60 -62
72 -84 180 -326 93 -212 122 -297 138 -415 11 -75 14 -84 19 -55 3 19 14 80
23 135 19 115 62 239 106 308 76 119 213 192 398 212 105 12 311 -39 529 -132
313 -133 489 -255 595 -411 38 -57 106 -113 106 -87 0 28 -59 172 -100 245
-52 92 -163 233 -233 296 -306 275 -883 462 -1322 428z"/>
<path d="M1140 5683 c-151 -23 -230 -90 -230 -195 0 -27 14 -71 40 -127 66
-145 75 -191 74 -396 0 -143 -5 -202 -22 -285 -31 -147 -30 -149 18 -107 44
38 128 71 202 82 151 20 446 -5 675 -59 174 -41 255 -69 302 -104 38 -28 51
-20 51 34 0 42 -36 92 -92 130 -64 43 -276 109 -428 134 -298 49 -419 109
-502 247 -38 65 -68 168 -68 237 0 43 5 51 75 128 86 94 115 146 115 205 0 61
-32 83 -119 82 -36 -1 -77 -3 -91 -6z"/>
<path d="M5791 5649 c189 -249 331 -506 449 -814 100 -261 165 -500 275 -1012
35 -166 74 -340 85 -385 106 -417 238 -669 437 -833 72 -60 229 -152 240 -142
3 3 -21 37 -54 74 -212 242 -290 510 -333 1138 -42 617 -181 1113 -422 1513
-46 75 -108 135 -199 191 -130 81 -189 122 -244 170 -81 71 -167 122 -218 129
l-42 5 26 -34z"/>
<path d="M3984 5173 c15 -50 57 -231 77 -328 17 -88 22 -144 22 -280 0 -156
-2 -177 -27 -260 -66 -220 -227 -446 -436 -614 -141 -113 -262 -197 -580 -401
-475 -304 -593 -389 -761 -549 -53 -50 -122 -124 -152 -163 -195 -255 -258
-681 -145 -991 11 -32 24 -60 28 -62 4 -2 10 37 14 88 19 263 95 488 236 697
74 110 241 282 345 354 78 55 247 138 435 216 385 158 759 409 974 655 220
252 324 625 276 992 -29 220 -137 470 -272 631 -30 36 -42 41 -34 15z"/>
<path d="M2700 4843 c-1 -139 -76 -310 -185 -419 -82 -82 -160 -124 -367 -198
-209 -75 -313 -124 -504 -237 -206 -123 -318 -153 -432 -115 -65 22 -138 99
-184 196 -18 38 -36 69 -40 69 -20 2 -38 -195 -27 -308 12 -134 53 -216 163
-326 69 -69 180 -155 200 -155 3 0 6 22 6 49 0 62 30 132 87 199 90 106 244
187 573 301 246 86 397 157 505 238 74 55 149 133 186 193 54 88 81 230 69
356 -8 82 -34 194 -45 194 -3 0 -5 -17 -5 -37z"/>
<path d="M5550 4811 c0 -5 16 -51 35 -101 44 -115 97 -303 124 -440 58 -294
70 -673 30 -1000 -64 -529 -272 -1194 -540 -1733 -85 -169 -65 -155 79 58 409
603 677 1340 752 2065 26 250 36 559 21 628 -20 94 -59 162 -140 243 -76 75
-361 296 -361 280z"/>
<path d="M2786 4218 c-44 -57 -158 -151 -244 -201 -112 -65 -242 -114 -457
-171 -5 -2 15 -10 46 -19 127 -38 209 -151 209 -291 0 -136 -57 -259 -202
-438 -172 -213 -199 -250 -248 -353 -83 -173 -117 -340 -107 -529 6 -116 29
-239 53 -291 12 -26 13 -26 9 -5 -34 166 -26 278 30 447 78 234 167 366 471
705 214 238 331 395 414 558 71 139 106 317 97 485 -7 111 -14 155 -26 155 -3
-1 -24 -24 -45 -52z"/>
<path d="M5131 4063 c-76 -277 -202 -615 -312 -835 -226 -454 -413 -654 -1059
-1137 -537 -402 -751 -627 -905 -954 -87 -186 -117 -312 -118 -497 0 -74 6
-142 18 -192 17 -79 35 -103 35 -49 0 16 7 60 15 98 83 383 339 733 785 1072
63 48 214 157 335 241 503 351 715 534 883 762 178 243 293 504 357 818 42
204 46 516 9 728 -4 17 -9 32 -13 32 -3 0 -17 -39 -30 -87z"/>
<path d="M3215 2772 c-177 -95 -374 -240 -486 -359 -131 -139 -251 -315 -327
-480 -69 -150 -99 -242 -123 -385 -29 -169 -22 -440 15 -598 53 -222 117 -367
242 -545 63 -90 166 -205 184 -205 5 0 1 24 -10 53 -37 100 -82 303 -107 482
-22 159 -24 202 -19 361 8 236 35 421 90 620 123 441 267 725 476 935 52 53
115 112 140 132 62 50 32 46 -75 -11z"/>
<path d="M4872 2459 c-12 -5 -75 -59 -140 -121 -64 -63 -128 -120 -141 -128
l-23 -15 63 -65 c221 -226 342 -504 356 -818 3 -68 9 -119 14 -115 38 39 62
403 40 615 -19 182 -114 626 -139 649 -4 4 -17 3 -30 -2z"/>
</g>
</svg>
